<mxfile host="app.diagrams.net" modified="2024-04-24T14:01:13.696Z" agent="Mozilla/5.0 (Windows NT 10.0; Win64; x64) AppleWebKit/537.36 (KHTML, like Gecko) Chrome/123.0.0.0 Safari/537.36" version="24.3.0" etag="AEGlnsqoxvQYdAzri6W7" type="github">
  <diagram name="第 1 页" id="eb0zN4UWtZKAkH11nBYS">
    <mxGraphModel>
      <root>
        <mxCell id="0" />
        <mxCell id="1" parent="0" />
      </root>
    </mxGraphModel>
  </diagram>
</mxfile>
